<?xml version="1.0" encoding="UTF-8"?> <!-- Generator: Adobe Illustrator 24.0.2, SVG Export Plug-In . SVG Version: 6.00 Build 0) --> <svg xmlns="http://www.w3.org/2000/svg" xmlns:xlink="http://www.w3.org/1999/xlink" version="1.1" id="Capa_1" x="0px" y="0px" viewBox="0 0 1320.9 402.8" style="enable-background:new 0 0 1320.9 402.8;" xml:space="preserve"> <style type="text/css"> .st0{fill:#20264C;} </style> <g> <path class="st0" d="M76.9,258.6v138.9H0V0h76.9v247l87.4-114.5h93.8L155.8,252.3l108.1,145.2h-90.6L76.9,258.6z"></path> <path class="st0" d="M513.6,286.2H320.1c6.4,35,27.6,53.5,62.5,53.5c24.4,0,40.3-8.5,47.7-26h77.9c-16.4,58.3-62.5,89-127.7,89 c-77.9,0-134.1-56.7-134.1-137.8c0-81.1,56.2-137.8,134.1-137.8S514.6,183.9,514.6,265C514.6,272.4,514.1,279.3,513.6,286.2z M320.6,241.1h119.8c-6.4-33.4-27.6-50.9-59.9-50.9C348.2,190.3,327,207.8,320.6,241.1z"></path> <path class="st0" d="M553.1,397.5V0H630v397.5H553.1z"></path> <path class="st0" d="M930.2,286.2H736.8c6.4,35,27.6,53.5,62.5,53.5c24.4,0,40.3-8.5,47.7-26h77.9c-16.4,58.3-62.5,89-127.7,89 c-77.9,0-134.1-56.7-134.1-137.8c0-81.1,56.2-137.8,134.1-137.8S931.3,183.9,931.3,265C931.3,272.4,930.8,279.3,930.2,286.2z M737.3,241.1h119.8c-6.4-33.4-27.6-50.9-59.9-50.9S743.7,207.8,737.3,241.1z"></path> <path class="st0" d="M1128.8,357.2c-17,32.3-47.7,45.6-84.3,45.6c-44,0-86.9-23.3-86.9-75.8c0-112.4,168.5-62,168.5-113.9 c0-18.5-18-29.7-41.9-29.7c-26.5,0-42.9,14.3-42.9,40.3h-75.8c0-69.4,59.4-96.5,120.8-96.5c60.9,0,116.6,24.4,116.6,88v182.3h-74.2 V357.2z M1067.9,346.1c31.8,0,59.4-18.5,59.4-54.1v-13.8c-36.6,16.4-92.8,11.7-92.8,42.4C1034.5,337.6,1049.3,346.1,1067.9,346.1z"></path> <path class="st0" d="M1234.5,359.9c0-24.9,18.5-42.9,43.5-42.9s42.9,18,42.9,42.9c0,23.8-18,42.9-42.9,42.9 S1234.5,383.7,1234.5,359.9z"></path> </g> </svg> 